# xmcd CD database file
#
# Track frame offsets:
#	187
#	17670
#	37217
#
# Disc length: 728 seconds
#
# Revision: 0
# Processed by: cddbd v1.5.1PL2 Copyright (c) Steve Scherf et al.
# Submitted via: CDex 1.60beta1-cs1
#
DISCID=1f02d603
DTITLE=TOKYO No.1 SOUL SET - 風マークⅡ
DYEAR=1996
DGENRE=unclassifiable
TTITLE0=風マークⅡ
TTITLE1=Bronco Summer
TTITLE2=風マークⅡ(instrumental)
EXTD=YEAR: 1996
EXTT0=
EXTT1=
EXTT2=
PLAYORDER=
